# xmcd
#
# Track frame offsets: 
#        150
#        13095
#        23601
#        36462
#        48208
#        61306
#        73986
#        89772
#        102689
#        113181
#        126947
#        142748
#        155957
#        174266
#        198540
#
# Disc length: 2982 seconds
#
# Revision: 0
# Processed by: cddbd v1.5.2PL0 Copyright (c) Steve Scherf et al.
# Submitted via: ExactAudioCopy v0.99pb4
#
DISCID=dc0ba40f
DTITLE=Ernie Ashworth - Ernie Ashworth Collection
DYEAR=1900
DGENRE=Country
TTITLE0=Talk Back Trembling Lips
TTITLE1=Heartaches, Headaches, and Hangovers
TTITLE2=Lonely's Only Bar
TTITLE3=Sunday Christian
TTITLE4=There's No Place I'd Rather Be Tonight
TTITLE5=Shamrock Hotel
TTITLE6=Empty Places (Daddy)
TTITLE7=I See A Bridge
TTITLE8=They're Foolin' You
TTITLE9=She Don't Drink, Don't Smoke, She Lies
TTITLE10=The Far Side Banks Of Jordan
TTITLE11=What Christmas Meant To Me
TTITLE12=Christmas Party
TTITLE13=This Ole Boy Ain't Gonna Walk The Line
TTITLE14=TEXT FILE
EXTD=
EXTT0=
EXTT1=
EXTT2=
EXTT3=
EXTT4=
EXTT5=
EXTT6=
EXTT7=
EXTT8=
EXTT9=
EXTT10=
EXTT11=
EXTT12=
EXTT13=
EXTT14=
PLAYORDER=
